STARTFONT 2.1
COMMENT screen bold font, 8 x 16 pixels
FONT -misc-fixed-bold-r-normal-serif-16-140-75-75-c-80-iso8859-2
SIZE 16 75 75
FONTBOUNDINGBOX 8 16 0 -3
STARTPROPERTIES 24
FONT_ASCENT 13
FONT_DESCENT 3
DEFAULT_CHAR 0
FONTNAME_REGISTRY ""
FOUNDRY "Misc"
FAMILY_NAME "Fixed"
WEIGHT_NAME "Bold"
SLANT "R"
SETWIDTH_NAME "Normal"
ADD_STYLE_NAME "Serif"
PIXEL_SIZE 16
POINT_SIZE 140
RESOLUTION_X 75
RESOLUTION_Y 75
SPACING "C"
AVERAGE_WIDTH 80
CHARSET_REGISTRY "ISO8859"
CHARSET_ENCODING "2"
COPYRIGHT "Libor Skarvada, libor@informatics.muni.cz"
FONT "-Misc-Fixed-Bold-R-Normal-Serif-16-140-75-75-C-80-ISO8859-2"
WEIGHT 10
CAP_HEIGHT 10
X_HEIGHT 7
QUAD_WIDTH 8
ENDPROPERTIES
CHARS 256
STARTCHAR 0
ENCODING 0
SWIDTH 480 0
DWIDTH 8 0
BBX 1 1 0 -3
BITMAP
00
ENDCHAR
STARTCHAR 1
ENCODING 1
SWIDTH 480 0
DWIDTH 8 0
BBX 7 7 0 1
BITMAP
10
38
7c
fe
7c
38
10
ENDCHAR
STARTCHAR 2
ENCODING 2
SWIDTH 480 0
DWIDTH 8 0
BBX 8 16 0 -3
BITMAP
aa
55
aa
55
aa
55
aa
55
aa
55
aa
55
aa
55
aa
55
ENDCHAR
STARTCHAR 3
ENCODING 3
SWIDTH 480 0
DWIDTH 8 0
BBX 7 11 0 -2
BITMAP
cc
cc
fc
cc
cc
00
7e
18
18
18
18
ENDCHAR
STARTCHAR 4
ENCODING 4
SWIDTH 480 0
DWIDTH 8 0
BBX 7 11 0 -2
BITMAP
f8
c0
f0
c0
c0
00
3e
30
3c
30
30
ENDCHAR
STARTCHAR 5
ENCODING 5
SWIDTH 480 0
DWIDTH 8 0
BBX 7 11 0 -2
BITMAP
7c
c4
c0
c4
7c
00
7c
66
7c
66
66
ENDCHAR
STARTCHAR 6
ENCODING 6
SWIDTH 480 0
DWIDTH 8 0
BBX 7 11 0 -2
BITMAP
c0
c0
c0
c0
f8
00
3e
30
3c
30
30
ENDCHAR
STARTCHAR 7
ENCODING 7
SWIDTH 480 0
DWIDTH 8 0
BBX 5 4 1 8
BITMAP
70
d8
d8
70
ENDCHAR
STARTCHAR 8
ENCODING 8
SWIDTH 480 0
DWIDTH 8 0
BBX 8 8 0 0
BITMAP
18
18
7e
18
18
00
00
ff
ENDCHAR
STARTCHAR 9
ENCODING 9
SWIDTH 480 0
DWIDTH 8 0
BBX 7 11 0 -2
BITMAP
cc
ec
fc
dc
cc
00
30
30
30
30
3e
ENDCHAR
STARTCHAR 10
ENCODING 10
SWIDTH 480 0
DWIDTH 8 0
BBX 7 11 0 -2
BITMAP
cc
cc
48
78
30
00
7e
18
18
18
18
ENDCHAR
STARTCHAR 11
ENCODING 11
SWIDTH 480 0
DWIDTH 8 0
BBX 5 9 0 4
BITMAP
18
18
18
18
18
18
18
18
f8
ENDCHAR
STARTCHAR 12
ENCODING 12
SWIDTH 480 0
DWIDTH 8 0
BBX 5 8 0 -3
BITMAP
f8
18
18
18
18
18
18
18
ENDCHAR
STARTCHAR 13
ENCODING 13
SWIDTH 480 0
DWIDTH 8 0
BBX 5 8 3 -3
BITMAP
f8
c0
c0
c0
c0
c0
c0
c0
ENDCHAR
STARTCHAR 14
ENCODING 14
SWIDTH 480 0
DWIDTH 8 0
BBX 5 9 3 4
BITMAP
c0
c0
c0
c0
c0
c0
c0
c0
f8
ENDCHAR
STARTCHAR 15
ENCODING 15
SWIDTH 480 0
DWIDTH 8 0
BBX 8 16 0 -3
BITMAP
18
18
18
18
18
18
18
18
ff
18
18
18
18
18
18
18
ENDCHAR
STARTCHAR 16
ENCODING 16
SWIDTH 480 0
DWIDTH 8 0
BBX 8 1 0 10
BITMAP
ff
ENDCHAR
STARTCHAR 17
ENCODING 17
SWIDTH 480 0
DWIDTH 8 0
BBX 8 1 0 7
BITMAP
ff
ENDCHAR
STARTCHAR 18
ENCODING 18
SWIDTH 480 0
DWIDTH 8 0
BBX 8 1 0 4
BITMAP
ff
ENDCHAR
STARTCHAR 19
ENCODING 19
SWIDTH 480 0
DWIDTH 8 0
BBX 8 1 0 1
BITMAP
ff
ENDCHAR
STARTCHAR 20
ENCODING 20
SWIDTH 480 0
DWIDTH 8 0
BBX 8 1 0 -2
BITMAP
ff
ENDCHAR
STARTCHAR 21
ENCODING 21
SWIDTH 480 0
DWIDTH 8 0
BBX 5 16 3 -3
BITMAP
c0
c0
c0
c0
c0
c0
c0
c0
f8
c0
c0
c0
c0
c0
c0
c0
ENDCHAR
STARTCHAR 22
ENCODING 22
SWIDTH 480 0
DWIDTH 8 0
BBX 5 16 0 -3
BITMAP
18
18
18
18
18
18
18
18
f8
18
18
18
18
18
18
18
ENDCHAR
STARTCHAR 23
ENCODING 23
SWIDTH 480 0
DWIDTH 8 0
BBX 8 9 0 4
BITMAP
18
18
18
18
18
18
18
18
ff
ENDCHAR
STARTCHAR 24
ENCODING 24
SWIDTH 480 0
DWIDTH 8 0
BBX 8 8 0 -3
BITMAP
ff
18
18
18
18
18
18
18
ENDCHAR
STARTCHAR 25
ENCODING 25
SWIDTH 480 0
DWIDTH 8 0
BBX 2 16 3 -3
BITMAP
c0
c0
c0
c0
c0
c0
c0
c0
c0
c0
c0
c0
c0
c0
c0
c0
ENDCHAR
STARTCHAR 26
ENCODING 26
SWIDTH 480 0
DWIDTH 8 0
BBX 6 9 1 0
BITMAP
18
30
60
c0
60
30
18
00
fc
ENDCHAR
STARTCHAR 27
ENCODING 27
SWIDTH 480 0
DWIDTH 8 0
BBX 6 9 1 0
BITMAP
60
30
18
0c
18
30
60
00
fc
ENDCHAR
STARTCHAR 28
ENCODING 28
SWIDTH 480 0
DWIDTH 8 0
BBX 7 8 0 0
BITMAP
fe
6c
6c
6c
6c
6c
6c
6c
ENDCHAR
STARTCHAR 29
ENCODING 29
SWIDTH 480 0
DWIDTH 8 0
BBX 7 7 0 1
BITMAP
06
0c
fe
38
fe
60
c0
ENDCHAR
STARTCHAR 30
ENCODING 30
SWIDTH 480 0
DWIDTH 8 0
BBX 1 1 0 -3
BITMAP
00
ENDCHAR
STARTCHAR 31
ENCODING 31
SWIDTH 480 0
DWIDTH 8 0
BBX 2 1 3 3
BITMAP
c0
ENDCHAR
STARTCHAR 32
ENCODING 32
SWIDTH 480 0
DWIDTH 8 0
BBX 1 1 0 -3
BITMAP
00
ENDCHAR
STARTCHAR 33
ENCODING 33
SWIDTH 480 0
DWIDTH 8 0
BBX 4 10 2 0
BITMAP
60
f0
f0
f0
60
60
60
00
60
60
ENDCHAR
STARTCHAR 34
ENCODING 34
SWIDTH 480 0
DWIDTH 8 0
BBX 6 4 1 8
BITMAP
cc
cc
cc
48
ENDCHAR
STARTCHAR 35
ENCODING 35
SWIDTH 480 0
DWIDTH 8 0
BBX 7 9 0 0
BITMAP
6c
6c
fe
6c
6c
6c
fe
6c
6c
ENDCHAR
STARTCHAR 36
ENCODING 36
SWIDTH 480 0
DWIDTH 8 0
BBX 7 14 0 -2
BITMAP
18
18
7c
c6
c2
c0
7c
06
06
86
c6
7c
18
18
ENDCHAR
STARTCHAR 37
ENCODING 37
SWIDTH 480 0
DWIDTH 8 0
BBX 7 8 0 0
BITMAP
c2
c6
0c
18
30
60
c6
86
ENDCHAR
STARTCHAR 38
ENCODING 38
SWIDTH 480 0
DWIDTH 8 0
BBX 7 10 0 0
BITMAP
38
6c
6c
38
76
dc
cc
cc
cc
76
ENDCHAR
STARTCHAR 39
ENCODING 39
SWIDTH 480 0
DWIDTH 8 0
BBX 3 4 1 8
BITMAP
60
60
60
c0
ENDCHAR
STARTCHAR 40
ENCODING 40
SWIDTH 480 0
DWIDTH 8 0
BBX 4 10 2 0
BITMAP
30
60
c0
c0
c0
c0
c0
c0
60
30
ENDCHAR
STARTCHAR 41
ENCODING 41
SWIDTH 480 0
DWIDTH 8 0
BBX 4 10 2 0
BITMAP
c0
60
30
30
30
30
30
30
60
c0
ENDCHAR
STARTCHAR 42
ENCODING 42
SWIDTH 480 0
DWIDTH 8 0
BBX 8 5 0 2
BITMAP
66
3c
ff
3c
66
ENDCHAR
STARTCHAR 43
ENCODING 43
SWIDTH 480 0
DWIDTH 8 0
BBX 6 5 1 2
BITMAP
30
30
fc
30
30
ENDCHAR
STARTCHAR 44
ENCODING 44
SWIDTH 480 0
DWIDTH 8 0
BBX 3 4 2 -1
BITMAP
60
60
60
c0
ENDCHAR
STARTCHAR 45
ENCODING 45
SWIDTH 480 0
DWIDTH 8 0
BBX 7 1 0 4
BITMAP
fe
ENDCHAR
STARTCHAR 46
ENCODING 46
SWIDTH 480 0
DWIDTH 8 0
BBX 2 2 3 0
BITMAP
c0
c0
ENDCHAR
STARTCHAR 47
ENCODING 47
SWIDTH 480 0
DWIDTH 8 0
BBX 7 8 0 0
BITMAP
02
06
0c
18
30
60
c0
80
ENDCHAR
STARTCHAR 48
ENCODING 48
SWIDTH 480 0
DWIDTH 8 0
BBX 7 10 0 0
BITMAP
38
6c
c6
c6
d6
d6
c6
c6
6c
38
ENDCHAR
STARTCHAR 49
ENCODING 49
SWIDTH 480 0
DWIDTH 8 0
BBX 6 10 1 0
BITMAP
30
70
f0
30
30
30
30
30
30
fc
ENDCHAR
STARTCHAR 50
ENCODING 50
SWIDTH 480 0
DWIDTH 8 0
BBX 7 10 0 0
BITMAP
7c
c6
06
0c
18
30
60
c0
c6
fe
ENDCHAR
STARTCHAR 51
ENCODING 51
SWIDTH 480 0
DWIDTH 8 0
BBX 7 10 0 0
BITMAP
7c
c6
06
06
3c
06
06
06
c6
7c
ENDCHAR
STARTCHAR 52
ENCODING 52
SWIDTH 480 0
DWIDTH 8 0
BBX 7 10 0 0
BITMAP
0c
1c
3c
6c
cc
fe
0c
0c
0c
1e
ENDCHAR
STARTCHAR 53
ENCODING 53
SWIDTH 480 0
DWIDTH 8 0
BBX 7 10 0 0
BITMAP
fe
c0
c0
c0
fc
06
06
06
c6
7c
ENDCHAR
STARTCHAR 54
ENCODING 54
SWIDTH 480 0
DWIDTH 8 0
BBX 7 10 0 0
BITMAP
38
60
c0
c0
fc
c6
c6
c6
c6
7c
ENDCHAR
STARTCHAR 55
ENCODING 55
SWIDTH 480 0
DWIDTH 8 0
BBX 7 10 0 0
BITMAP
fe
c6
06
06
0c
18
30
30
30
30
ENDCHAR
STARTCHAR 56
ENCODING 56
SWIDTH 480 0
DWIDTH 8 0
BBX 7 10 0 0
BITMAP
7c
c6
c6
c6
7c
c6
c6
c6
c6
7c
ENDCHAR
STARTCHAR 57
ENCODING 57
SWIDTH 480 0
DWIDTH 8 0
BBX 7 10 0 0
BITMAP
7c
c6
c6
c6
7e
06
06
06
0c
78
ENDCHAR
STARTCHAR 58
ENCODING 58
SWIDTH 480 0
DWIDTH 8 0
BBX 2 7 3 1
BITMAP
c0
c0
00
00
00
c0
c0
ENDCHAR
STARTCHAR 59
ENCODING 59
SWIDTH 480 0
DWIDTH 8 0
BBX 3 8 2 0
BITMAP
60
60
00
00
00
60
60
c0
ENDCHAR
STARTCHAR 60
ENCODING 60
SWIDTH 480 0
DWIDTH 8 0
BBX 6 9 1 0
BITMAP
0c
18
30
60
c0
60
30
18
0c
ENDCHAR
STARTCHAR 61
ENCODING 61
SWIDTH 480 0
DWIDTH 8 0
BBX 6 4 1 3
BITMAP
fc
00
00
fc
ENDCHAR
STARTCHAR 62
ENCODING 62
SWIDTH 480 0
DWIDTH 8 0
BBX 6 9 1 0
BITMAP
c0
60
30
18
0c
18
30
60
c0
ENDCHAR
STARTCHAR 63
ENCODING 63
SWIDTH 480 0
DWIDTH 8 0
BBX 7 10 0 0
BITMAP
7c
c6
c6
0c
18
18
18
00
18
18
ENDCHAR
STARTCHAR 64
ENCODING 64
SWIDTH 480 0
DWIDTH 8 0
BBX 7 9 0 0
BITMAP
7c
c6
c6
de
de
de
dc
c0
7c
ENDCHAR
STARTCHAR 65
ENCODING 65
SWIDTH 480 0
DWIDTH 8 0
BBX 7 10 0 0
BITMAP
10
38
6c
c6
c6
fe
c6
c6
c6
c6
ENDCHAR
STARTCHAR 66
ENCODING 66
SWIDTH 480 0
DWIDTH 8 0
BBX 7 10 0 0
BITMAP
fc
66
66
66
7c
66
66
66
66
fc
ENDCHAR
STARTCHAR 67
ENCODING 67
SWIDTH 480 0
DWIDTH 8 0
BBX 7 10 0 0
BITMAP
3c
66
c2
c0
c0
c0
c0
c2
66
3c
ENDCHAR
STARTCHAR 68
ENCODING 68
SWIDTH 480 0
DWIDTH 8 0
BBX 7 10 0 0
BITMAP
f8
6c
66
66
66
66
66
66
6c
f8
ENDCHAR
STARTCHAR 69
ENCODING 69
SWIDTH 480 0
DWIDTH 8 0
BBX 7 10 0 0
BITMAP
fe
66
62
68
78
68
60
62
66
fe
ENDCHAR
STARTCHAR 70
ENCODING 70
SWIDTH 480 0
DWIDTH 8 0
BBX 7 10 0 0
BITMAP
fe
66
62
68
78
68
60
60
60
f0
ENDCHAR
STARTCHAR 71
ENCODING 71
SWIDTH 480 0
DWIDTH 8 0
BBX 7 10 0 0
BITMAP
3c
66
c2
c0
c0
de
c6
c6
66
3a
ENDCHAR
STARTCHAR 72
ENCODING 72
SWIDTH 480 0
DWIDTH 8 0
BBX 7 10 0 0
BITMAP
c6
c6
c6
c6
fe
c6
c6
c6
c6
c6
ENDCHAR
STARTCHAR 73
ENCODING 73
SWIDTH 480 0
DWIDTH 8 0
BBX 4 10 2 0
BITMAP
f0
60
60
60
60
60
60
60
60
f0
ENDCHAR
STARTCHAR 74
ENCODING 74
SWIDTH 480 0
DWIDTH 8 0
BBX 7 10 0 0
BITMAP
1e
0c
0c
0c
0c
0c
cc
cc
cc
78
ENDCHAR
STARTCHAR 75
ENCODING 75
SWIDTH 480 0
DWIDTH 8 0
BBX 7 10 0 0
BITMAP
e6
66
66
6c
78
78
6c
66
66
e6
ENDCHAR
STARTCHAR 76
ENCODING 76
SWIDTH 480 0
DWIDTH 8 0
BBX 7 10 0 0
BITMAP
f0
60
60
60
60
60
60
62
66
fe
ENDCHAR
STARTCHAR 77
ENCODING 77
SWIDTH 480 0
DWIDTH 8 0
BBX 7 10 0 0
BITMAP
c6
ee
fe
fe
d6
c6
c6
c6
c6
c6
ENDCHAR
STARTCHAR 78
ENCODING 78
SWIDTH 480 0
DWIDTH 8 0
BBX 7 10 0 0
BITMAP
c6
e6
f6
fe
de
ce
c6
c6
c6
c6
ENDCHAR
STARTCHAR 79
ENCODING 79
SWIDTH 480 0
DWIDTH 8 0
BBX 7 10 0 0
BITMAP
7c
c6
c6
c6
c6
c6
c6
c6
c6
7c
ENDCHAR
STARTCHAR 80
ENCODING 80
SWIDTH 480 0
DWIDTH 8 0
BBX 7 10 0 0
BITMAP
fc
66
66
66
7c
60
60
60
60
f0
ENDCHAR
STARTCHAR 81
ENCODING 81
SWIDTH 480 0
DWIDTH 8 0
BBX 7 12 0 -2
BITMAP
7c
c6
c6
c6
c6
c6
c6
d6
de
7c
0c
0e
ENDCHAR
STARTCHAR 82
ENCODING 82
SWIDTH 480 0
DWIDTH 8 0
BBX 7 10 0 0
BITMAP
fc
66
66
66
7c
6c
66
66
66
e6
ENDCHAR
STARTCHAR 83
ENCODING 83
SWIDTH 480 0
DWIDTH 8 0
BBX 7 10 0 0
BITMAP
7c
c6
c6
60
38
0c
06
c6
c6
7c
ENDCHAR
STARTCHAR 84
ENCODING 84
SWIDTH 480 0
DWIDTH 8 0
BBX 6 10 1 0
BITMAP
fc
fc
b4
30
30
30
30
30
30
78
ENDCHAR
STARTCHAR 85
ENCODING 85
SWIDTH 480 0
DWIDTH 8 0
BBX 7 10 0 0
BITMAP
c6
c6
c6
c6
c6
c6
c6
c6
c6
7c
ENDCHAR
STARTCHAR 86
ENCODING 86
SWIDTH 480 0
DWIDTH 8 0
BBX 7 10 0 0
BITMAP
c6
c6
c6
c6
c6
c6
c6
6c
38
10
ENDCHAR
STARTCHAR 87
ENCODING 87
SWIDTH 480 0
DWIDTH 8 0
BBX 7 10 0 0
BITMAP
c6
c6
c6
c6
d6
d6
d6
fe
ee
6c
ENDCHAR
STARTCHAR 88
ENCODING 88
SWIDTH 480 0
DWIDTH 8 0
BBX 7 10 0 0
BITMAP
c6
c6
6c
7c
38
38
7c
6c
c6
c6
ENDCHAR
STARTCHAR 89
ENCODING 89
SWIDTH 480 0
DWIDTH 8 0
BBX 6 10 1 0
BITMAP
cc
cc
cc
cc
78
30
30
30
30
78
ENDCHAR
STARTCHAR 90
ENCODING 90
SWIDTH 480 0
DWIDTH 8 0
BBX 7 10 0 0
BITMAP
fe
c6
86
0c
18
30
60
c2
c6
fe
ENDCHAR
STARTCHAR 91
ENCODING 91
SWIDTH 480 0
DWIDTH 8 0
BBX 4 10 2 0
BITMAP
f0
c0
c0
c0
c0
c0
c0
c0
c0
f0
ENDCHAR
STARTCHAR 92
ENCODING 92
SWIDTH 480 0
DWIDTH 8 0
BBX 7 9 0 0
BITMAP
80
c0
e0
70
38
1c
0e
06
02
ENDCHAR
STARTCHAR 93
ENCODING 93
SWIDTH 480 0
DWIDTH 8 0
BBX 4 10 2 0
BITMAP
f0
30
30
30
30
30
30
30
30
f0
ENDCHAR
STARTCHAR 94
ENCODING 94
SWIDTH 480 0
DWIDTH 8 0
BBX 7 4 0 8
BITMAP
10
38
6c
c6
ENDCHAR
STARTCHAR 95
ENCODING 95
SWIDTH 480 0
DWIDTH 8 0
BBX 8 1 0 -2
BITMAP
ff
ENDCHAR
STARTCHAR 96
ENCODING 96
SWIDTH 480 0
DWIDTH 8 0
BBX 3 4 4 8
BITMAP
c0
c0
c0
60
ENDCHAR
STARTCHAR 97
ENCODING 97
SWIDTH 480 0
DWIDTH 8 0
BBX 7 7 0 0
BITMAP
78
0c
7c
cc
cc
cc
76
ENDCHAR
STARTCHAR 98
ENCODING 98
SWIDTH 480 0
DWIDTH 8 0
BBX 7 10 0 0
BITMAP
e0
60
60
78
6c
66
66
66
66
7c
ENDCHAR
STARTCHAR 99
ENCODING 99
SWIDTH 480 0
DWIDTH 8 0
BBX 7 7 0 0
BITMAP
7c
c6
c0
c0
c0
c6
7c
ENDCHAR
STARTCHAR 100
ENCODING 100
SWIDTH 480 0
DWIDTH 8 0
BBX 7 10 0 0
BITMAP
1c
0c
0c
3c
6c
cc
cc
cc
cc
76
ENDCHAR
STARTCHAR 101
ENCODING 101
SWIDTH 480 0
DWIDTH 8 0
BBX 7 7 0 0
BITMAP
7c
c6
fe
c0
c0
c6
7c
ENDCHAR
STARTCHAR 102
ENCODING 102
SWIDTH 480 0
DWIDTH 8 0
BBX 6 10 0 0
BITMAP
38
6c
64
60
f0
60
60
60
60
f0
ENDCHAR
STARTCHAR 103
ENCODING 103
SWIDTH 480 0
DWIDTH 8 0
BBX 7 10 0 -3
BITMAP
76
cc
cc
cc
cc
cc
7c
0c
cc
78
ENDCHAR
STARTCHAR 104
ENCODING 104
SWIDTH 480 0
DWIDTH 8 0
BBX 7 10 0 0
BITMAP
e0
60
60
6c
76
66
66
66
66
e6
ENDCHAR
STARTCHAR 105
ENCODING 105
SWIDTH 480 0
DWIDTH 8 0
BBX 4 10 2 0
BITMAP
60
60
00
e0
60
60
60
60
60
f0
ENDCHAR
STARTCHAR 106
ENCODING 106
SWIDTH 480 0
DWIDTH 8 0
BBX 6 13 1 -3
BITMAP
0c
0c
00
1c
0c
0c
0c
0c
0c
0c
cc
cc
78
ENDCHAR
STARTCHAR 107
ENCODING 107
SWIDTH 480 0
DWIDTH 8 0
BBX 7 10 0 0
BITMAP
e0
60
60
66
6c
78
78
6c
66
e6
ENDCHAR
STARTCHAR 108
ENCODING 108
SWIDTH 480 0
DWIDTH 8 0
BBX 4 10 2 0
BITMAP
e0
60
60
60
60
60
60
60
60
f0
ENDCHAR
STARTCHAR 109
ENCODING 109
SWIDTH 480 0
DWIDTH 8 0
BBX 7 7 0 0
BITMAP
ec
fe
d6
d6
d6
d6
c6
ENDCHAR
STARTCHAR 110
ENCODING 110
SWIDTH 480 0
DWIDTH 8 0
BBX 7 7 0 0
BITMAP
dc
66
66
66
66
66
66
ENDCHAR
STARTCHAR 111
ENCODING 111
SWIDTH 480 0
DWIDTH 8 0
BBX 7 7 0 0
BITMAP
7c
c6
c6
c6
c6
c6
7c
ENDCHAR
STARTCHAR 112
ENCODING 112
SWIDTH 480 0
DWIDTH 8 0
BBX 7 10 0 -3
BITMAP
dc
66
66
66
66
66
7c
60
60
f0
ENDCHAR
STARTCHAR 113
ENCODING 113
SWIDTH 480 0
DWIDTH 8 0
BBX 7 10 0 -3
BITMAP
76
cc
cc
cc
cc
cc
7c
0c
0c
1e
ENDCHAR
STARTCHAR 114
ENCODING 114
SWIDTH 480 0
DWIDTH 8 0
BBX 7 7 0 0
BITMAP
dc
76
66
60
60
60
f0
ENDCHAR
STARTCHAR 115
ENCODING 115
SWIDTH 480 0
DWIDTH 8 0
BBX 7 7 0 0
BITMAP
7c
c6
60
38
0c
c6
7c
ENDCHAR
STARTCHAR 116
ENCODING 116
SWIDTH 480 0
DWIDTH 8 0
BBX 7 10 0 0
BITMAP
10
30
30
fc
30
30
30
30
36
1c
ENDCHAR
STARTCHAR 117
ENCODING 117
SWIDTH 480 0
DWIDTH 8 0
BBX 7 7 0 0
BITMAP
cc
cc
cc
cc
cc
cc
76
ENDCHAR
STARTCHAR 118
ENCODING 118
SWIDTH 480 0
DWIDTH 8 0
BBX 6 7 1 0
BITMAP
cc
cc
cc
cc
cc
78
30
ENDCHAR
STARTCHAR 119
ENCODING 119
SWIDTH 480 0
DWIDTH 8 0
BBX 7 7 0 0
BITMAP
c6
c6
d6
d6
d6
fe
6c
ENDCHAR
STARTCHAR 120
ENCODING 120
SWIDTH 480 0
DWIDTH 8 0
BBX 7 7 0 0
BITMAP
c6
6c
38
38
38
6c
c6
ENDCHAR
STARTCHAR 121
ENCODING 121
SWIDTH 480 0
DWIDTH 8 0
BBX 7 10 0 -3
BITMAP
c6
c6
c6
c6
c6
c6
7e
06
0c
f8
ENDCHAR
STARTCHAR 122
ENCODING 122
SWIDTH 480 0
DWIDTH 8 0
BBX 7 7 0 0
BITMAP
fe
cc
18
30
60
c6
fe
ENDCHAR
STARTCHAR 123
ENCODING 123
SWIDTH 480 0
DWIDTH 8 0
BBX 6 10 1 0
BITMAP
1c
30
30
30
e0
30
30
30
30
1c
ENDCHAR
STARTCHAR 124
ENCODING 124
SWIDTH 480 0
DWIDTH 8 0
BBX 2 10 3 0
BITMAP
c0
c0
c0
c0
00
c0
c0
c0
c0
c0
ENDCHAR
STARTCHAR 125
ENCODING 125
SWIDTH 480 0
DWIDTH 8 0
BBX 6 10 1 0
BITMAP
e0
30
30
30
1c
30
30
30
30
e0
ENDCHAR
STARTCHAR 126
ENCODING 126
SWIDTH 480 0
DWIDTH 8 0
BBX 7 2 0 8
BITMAP
76
dc
ENDCHAR
STARTCHAR 127
ENCODING 127
SWIDTH 480 0
DWIDTH 8 0
BBX 1 1 0 -3
BITMAP
00
ENDCHAR
STARTCHAR 128
ENCODING 128
SWIDTH 480 0
DWIDTH 8 0
BBX 1 1 0 -3
BITMAP
00
ENDCHAR
STARTCHAR 129
ENCODING 129
SWIDTH 480 0
DWIDTH 8 0
BBX 1 1 0 -3
BITMAP
00
ENDCHAR
STARTCHAR 130
ENCODING 130
SWIDTH 480 0
DWIDTH 8 0
BBX 1 1 0 -3
BITMAP
00
ENDCHAR
STARTCHAR 131
ENCODING 131
SWIDTH 480 0
DWIDTH 8 0
BBX 1 1 0 -3
BITMAP
00
ENDCHAR
STARTCHAR 132
ENCODING 132
SWIDTH 480 0
DWIDTH 8 0
BBX 1 1 0 -3
BITMAP
00
ENDCHAR
STARTCHAR 133
ENCODING 133
SWIDTH 480 0
DWIDTH 8 0
BBX 1 1 0 -3
BITMAP
00
ENDCHAR
STARTCHAR 134
ENCODING 134
SWIDTH 480 0
DWIDTH 8 0
BBX 1 1 0 -3
BITMAP
00
ENDCHAR
STARTCHAR 135
ENCODING 135
SWIDTH 480 0
DWIDTH 8 0
BBX 1 1 0 -3
BITMAP
00
ENDCHAR
STARTCHAR 136
ENCODING 136
SWIDTH 480 0
DWIDTH 8 0
BBX 1 1 0 -3
BITMAP
00
ENDCHAR
STARTCHAR 137
ENCODING 137
SWIDTH 480 0
DWIDTH 8 0
BBX 1 1 0 -3
BITMAP
00
ENDCHAR
STARTCHAR 138
ENCODING 138
SWIDTH 480 0
DWIDTH 8 0
BBX 1 1 0 -3
BITMAP
00
ENDCHAR
STARTCHAR 139
ENCODING 139
SWIDTH 480 0
DWIDTH 8 0
BBX 1 1 0 -3
BITMAP
00
ENDCHAR
STARTCHAR 140
ENCODING 140
SWIDTH 480 0
DWIDTH 8 0
BBX 1 1 0 -3
BITMAP
00
ENDCHAR
STARTCHAR 141
ENCODING 141
SWIDTH 480 0
DWIDTH 8 0
BBX 1 1 0 -3
BITMAP
00
ENDCHAR
STARTCHAR 142
ENCODING 142
SWIDTH 480 0
DWIDTH 8 0
BBX 1 1 0 -3
BITMAP
00
ENDCHAR
STARTCHAR 143
ENCODING 143
SWIDTH 480 0
DWIDTH 8 0
BBX 1 1 0 -3
BITMAP
00
ENDCHAR
STARTCHAR 144
ENCODING 144
SWIDTH 480 0
DWIDTH 8 0
BBX 1 1 0 -3
BITMAP
00
ENDCHAR
STARTCHAR 145
ENCODING 145
SWIDTH 480 0
DWIDTH 8 0
BBX 1 1 0 -3
BITMAP
00
ENDCHAR
STARTCHAR 146
ENCODING 146
SWIDTH 480 0
DWIDTH 8 0
BBX 1 1 0 -3
BITMAP
00
ENDCHAR
STARTCHAR 147
ENCODING 147
SWIDTH 480 0
DWIDTH 8 0
BBX 1 1 0 -3
BITMAP
00
ENDCHAR
STARTCHAR 148
ENCODING 148
SWIDTH 480 0
DWIDTH 8 0
BBX 1 1 0 -3
BITMAP
00
ENDCHAR
STARTCHAR 149
ENCODING 149
SWIDTH 480 0
DWIDTH 8 0
BBX 1 1 0 -3
BITMAP
00
ENDCHAR
STARTCHAR 150
ENCODING 150
SWIDTH 480 0
DWIDTH 8 0
BBX 1 1 0 -3
BITMAP
00
ENDCHAR
STARTCHAR 151
ENCODING 151
SWIDTH 480 0
DWIDTH 8 0
BBX 1 1 0 -3
BITMAP
00
ENDCHAR
STARTCHAR 152
ENCODING 152
SWIDTH 480 0
DWIDTH 8 0
BBX 1 1 0 -3
BITMAP
00
ENDCHAR
STARTCHAR 153
ENCODING 153
SWIDTH 480 0
DWIDTH 8 0
BBX 1 1 0 -3
BITMAP
00
ENDCHAR
STARTCHAR 154
ENCODING 154
SWIDTH 480 0
DWIDTH 8 0
BBX 1 1 0 -3
BITMAP
00
ENDCHAR
STARTCHAR 155
ENCODING 155
SWIDTH 480 0
DWIDTH 8 0
BBX 1 1 0 -3
BITMAP
00
ENDCHAR
STARTCHAR 156
ENCODING 156
SWIDTH 480 0
DWIDTH 8 0
BBX 1 1 0 -3
BITMAP
00
ENDCHAR
STARTCHAR 157
ENCODING 157
SWIDTH 480 0
DWIDTH 8 0
BBX 1 1 0 -3
BITMAP
00
ENDCHAR
STARTCHAR 158
ENCODING 158
SWIDTH 480 0
DWIDTH 8 0
BBX 1 1 0 -3
BITMAP
00
ENDCHAR
STARTCHAR 159
ENCODING 159
SWIDTH 480 0
DWIDTH 8 0
BBX 1 1 0 -3
BITMAP
00
ENDCHAR
STARTCHAR 160
ENCODING 160
SWIDTH 480 0
DWIDTH 8 0
BBX 1 1 0 -3
BITMAP
00
ENDCHAR
STARTCHAR 161
ENCODING 161
SWIDTH 480 0
DWIDTH 8 0
BBX 7 13 0 -3
BITMAP
10
38
6c
c6
c6
fe
c6
c6
c6
c6
0c
18
0e
ENDCHAR
STARTCHAR 162
ENCODING 162
SWIDTH 480 0
DWIDTH 8 0
BBX 7 3 0 8
BITMAP
c6
c6
7c
ENDCHAR
STARTCHAR 163
ENCODING 163
SWIDTH 480 0
DWIDTH 8 0
BBX 7 10 0 0
BITMAP
f0
60
68
78
70
60
e0
e2
66
fe
ENDCHAR
STARTCHAR 164
ENCODING 164
SWIDTH 480 0
DWIDTH 8 0
BBX 6 6 1 3
BITMAP
cc
b4
48
48
b4
cc
ENDCHAR
STARTCHAR 165
ENCODING 165
SWIDTH 480 0
DWIDTH 8 0
BBX 7 11 0 0
BITMAP
06
f6
66
6c
60
60
60
60
62
66
fe
ENDCHAR
STARTCHAR 166
ENCODING 166
SWIDTH 480 0
DWIDTH 8 0
BBX 7 13 0 0
BITMAP
0e
38
00
7c
c6
c6
60
38
0c
06
c6
c6
7c
ENDCHAR
STARTCHAR 167
ENCODING 167
SWIDTH 480 0
DWIDTH 8 0
BBX 7 12 0 -1
BITMAP
7c
c6
60
38
6c
c6
c6
6c
38
0c
c6
7c
ENDCHAR
STARTCHAR 168
ENCODING 168
SWIDTH 480 0
DWIDTH 8 0
BBX 6 2 0 9
BITMAP
cc
cc
ENDCHAR
STARTCHAR 169
ENCODING 169
SWIDTH 480 0
DWIDTH 8 0
BBX 7 13 0 0
BITMAP
6c
38
00
7c
c6
c6
60
38
0c
06
c6
c6
7c
ENDCHAR
STARTCHAR 170
ENCODING 170
SWIDTH 480 0
DWIDTH 8 0
BBX 7 13 0 -3
BITMAP
7c
c6
c6
60
38
0c
06
c6
c6
7c
18
18
30
ENDCHAR
STARTCHAR 171
ENCODING 171
SWIDTH 480 0
DWIDTH 8 0
BBX 6 13 1 0
BITMAP
cc
78
00
fc
fc
b4
30
30
30
30
30
30
78
ENDCHAR
STARTCHAR 172
ENCODING 172
SWIDTH 480 0
DWIDTH 8 0
BBX 7 13 0 0
BITMAP
0e
38
00
fe
c6
86
0c
18
30
60
c2
c6
fe
ENDCHAR
STARTCHAR 173
ENCODING 173
SWIDTH 480 0
DWIDTH 8 0
BBX 7 1 0 4
BITMAP
fe
ENDCHAR
STARTCHAR 174
ENCODING 174
SWIDTH 480 0
DWIDTH 8 0
BBX 7 13 0 0
BITMAP
6c
38
00
fe
c6
86
0c
18
30
60
c2
c6
fe
ENDCHAR
STARTCHAR 175
ENCODING 175
SWIDTH 480 0
DWIDTH 8 0
BBX 7 13 0 0
BITMAP
10
38
10
fe
c6
86
0c
18
30
60
c2
c6
fe
ENDCHAR
STARTCHAR 176
ENCODING 176
SWIDTH 480 0
DWIDTH 8 0
BBX 5 4 1 8
BITMAP
70
d8
d8
70
ENDCHAR
STARTCHAR 177
ENCODING 177
SWIDTH 480 0
DWIDTH 8 0
BBX 7 10 0 -3
BITMAP
78
0c
7c
cc
cc
cc
76
0c
0c
06
ENDCHAR
STARTCHAR 178
ENCODING 178
SWIDTH 480 0
DWIDTH 8 0
BBX 4 3 3 -2
BITMAP
60
c0
70
ENDCHAR
STARTCHAR 179
ENCODING 179
SWIDTH 480 0
DWIDTH 8 0
BBX 6 10 1 0
BITMAP
70
34
3c
38
30
70
f0
b0
30
78
ENDCHAR
STARTCHAR 180
ENCODING 180
SWIDTH 480 0
DWIDTH 8 0
BBX 4 3 2 9
BITMAP
30
60
c0
ENDCHAR
STARTCHAR 181
ENCODING 181
SWIDTH 480 0
DWIDTH 8 0
BBX 7 11 1 0
BITMAP
0e
e6
66
6c
60
60
60
60
60
60
f0
ENDCHAR
STARTCHAR 182
ENCODING 182
SWIDTH 480 0
DWIDTH 8 0
BBX 7 11 0 0
BITMAP
06
0c
18
00
7c
c6
60
38
0c
c6
7c
ENDCHAR
STARTCHAR 183
ENCODING 183
SWIDTH 480 0
DWIDTH 8 0
BBX 5 2 1 9
BITMAP
d8
70
ENDCHAR
STARTCHAR 184
ENCODING 184
SWIDTH 480 0
DWIDTH 8 0
BBX 5 3 1 -2
BITMAP
30
18
f0
ENDCHAR
STARTCHAR 185
ENCODING 185
SWIDTH 480 0
DWIDTH 8 0
BBX 7 10 0 0
BITMAP
6c
38
00
7c
c6
60
38
0c
c6
7c
ENDCHAR
STARTCHAR 186
ENCODING 186
SWIDTH 480 0
DWIDTH 8 0
BBX 7 10 0 -3
BITMAP
7c
c6
60
38
0c
c6
7c
18
18
30
ENDCHAR
STARTCHAR 187
ENCODING 187
SWIDTH 480 0
DWIDTH 8 0
BBX 8 11 0 0
BITMAP
07
13
33
36
fc
30
30
30
30
36
1c
ENDCHAR
STARTCHAR 188
ENCODING 188
SWIDTH 480 0
DWIDTH 8 0
BBX 7 11 0 0
BITMAP
06
0c
18
00
fe
cc
18
30
60
c6
fe
ENDCHAR
STARTCHAR 189
ENCODING 189
SWIDTH 480 0
DWIDTH 8 0
BBX 8 3 0 8
BITMAP
33
66
cc
ENDCHAR
STARTCHAR 190
ENCODING 190
SWIDTH 480 0
DWIDTH 8 0
BBX 7 10 0 0
BITMAP
6c
38
00
fe
cc
18
30
60
c6
fe
ENDCHAR
STARTCHAR 191
ENCODING 191
SWIDTH 480 0
DWIDTH 8 0
BBX 7 11 0 0
BITMAP
10
38
10
00
fe
cc
18
30
60
c6
fe
ENDCHAR
STARTCHAR 192
ENCODING 192
SWIDTH 480 0
DWIDTH 8 0
BBX 7 13 0 0
BITMAP
0e
38
00
fc
66
66
66
7c
6c
66
66
66
e6
ENDCHAR
STARTCHAR 193
ENCODING 193
SWIDTH 480 0
DWIDTH 8 0
BBX 7 13 0 0
BITMAP
0e
38
00
10
38
6c
c6
c6
fe
c6
c6
c6
c6
ENDCHAR
STARTCHAR 194
ENCODING 194
SWIDTH 480 0
DWIDTH 8 0
BBX 7 13 0 0
BITMAP
38
6c
00
10
38
6c
c6
c6
fe
c6
c6
c6
c6
ENDCHAR
STARTCHAR 195
ENCODING 195
SWIDTH 480 0
DWIDTH 8 0
BBX 7 13 0 0
BITMAP
c6
7c
00
10
38
6c
c6
c6
fe
c6
c6
c6
c6
ENDCHAR
STARTCHAR 196
ENCODING 196
SWIDTH 480 0
DWIDTH 8 0
BBX 7 13 0 0
BITMAP
c6
c6
00
10
38
6c
c6
c6
fe
c6
c6
c6
c6
ENDCHAR
STARTCHAR 197
ENCODING 197
SWIDTH 480 0
DWIDTH 8 0
BBX 7 13 0 0
BITMAP
1c
70
00
f0
60
60
60
60
60
60
62
66
fe
ENDCHAR
STARTCHAR 198
ENCODING 198
SWIDTH 480 0
DWIDTH 8 0
BBX 7 13 0 0
BITMAP
0e
38
00
3c
66
c2
c0
c0
c0
c0
c2
66
3c
ENDCHAR
STARTCHAR 199
ENCODING 199
SWIDTH 480 0
DWIDTH 8 0
BBX 7 13 0 -3
BITMAP
3c
66
c2
c0
c0
c0
c0
c2
66
3c
0c
06
3c
ENDCHAR
STARTCHAR 200
ENCODING 200
SWIDTH 480 0
DWIDTH 8 0
BBX 7 13 0 0
BITMAP
6c
38
00
3c
66
c2
c0
c0
c0
c0
c2
66
3c
ENDCHAR
STARTCHAR 201
ENCODING 201
SWIDTH 480 0
DWIDTH 8 0
BBX 7 13 0 0
BITMAP
0e
38
00
fe
66
62
68
78
68
60
62
66
fe
ENDCHAR
STARTCHAR 202
ENCODING 202
SWIDTH 480 0
DWIDTH 8 0
BBX 7 13 0 -3
BITMAP
fe
66
62
68
78
68
60
62
66
fe
0c
18
0e
ENDCHAR
STARTCHAR 203
ENCODING 203
SWIDTH 480 0
DWIDTH 8 0
BBX 7 13 0 0
BITMAP
6c
6c
00
fe
66
62
68
78
68
60
62
66
fe
ENDCHAR
STARTCHAR 204
ENCODING 204
SWIDTH 480 0
DWIDTH 8 0
BBX 7 13 0 0
BITMAP
6c
38
00
fe
66
62
68
78
68
60
62
66
fe
ENDCHAR
STARTCHAR 205
ENCODING 205
SWIDTH 480 0
DWIDTH 8 0
BBX 5 13 2 0
BITMAP
38
e0
00
f0
60
60
60
60
60
60
60
60
f0
ENDCHAR
STARTCHAR 206
ENCODING 206
SWIDTH 480 0
DWIDTH 8 0
BBX 6 13 1 0
BITMAP
78
cc
00
78
30
30
30
30
30
30
30
30
78
ENDCHAR
STARTCHAR 207
ENCODING 207
SWIDTH 480 0
DWIDTH 8 0
BBX 7 13 0 0
BITMAP
6c
38
00
f8
6c
66
66
66
66
66
66
6c
f8
ENDCHAR
STARTCHAR 208
ENCODING 208
SWIDTH 480 0
DWIDTH 8 0
BBX 7 10 0 0
BITMAP
f8
6c
66
66
f6
66
66
66
6c
f8
ENDCHAR
STARTCHAR 209
ENCODING 209
SWIDTH 480 0
DWIDTH 8 0
BBX 7 13 0 0
BITMAP
0e
38
00
c6
e6
f6
fe
de
ce
c6
c6
c6
c6
ENDCHAR
STARTCHAR 210
ENCODING 210
SWIDTH 480 0
DWIDTH 8 0
BBX 7 13 0 0
BITMAP
6c
38
00
c6
e6
f6
fe
de
ce
c6
c6
c6
c6
ENDCHAR
STARTCHAR 211
ENCODING 211
SWIDTH 480 0
DWIDTH 8 0
BBX 7 13 0 0
BITMAP
0e
38
00
7c
c6
c6
c6
c6
c6
c6
c6
c6
7c
ENDCHAR
STARTCHAR 212
ENCODING 212
SWIDTH 480 0
DWIDTH 8 0
BBX 7 13 0 0
BITMAP
38
6c
00
7c
c6
c6
c6
c6
c6
c6
c6
c6
7c
ENDCHAR
STARTCHAR 213
ENCODING 213
SWIDTH 480 0
DWIDTH 8 0
BBX 7 13 0 0
BITMAP
66
cc
00
7c
c6
c6
c6
c6
c6
c6
c6
c6
7c
ENDCHAR
STARTCHAR 214
ENCODING 214
SWIDTH 480 0
DWIDTH 8 0
BBX 7 13 0 0
BITMAP
c6
c6
00
7c
c6
c6
c6
c6
c6
c6
c6
c6
7c
ENDCHAR
STARTCHAR 215
ENCODING 215
SWIDTH 480 0
DWIDTH 8 0
BBX 7 6 0 2
BITMAP
c6
6c
38
38
6c
c6
ENDCHAR
STARTCHAR 216
ENCODING 216
SWIDTH 480 0
DWIDTH 8 0
BBX 7 13 0 0
BITMAP
6c
38
00
fc
66
66
66
7c
6c
66
66
66
e6
ENDCHAR
STARTCHAR 217
ENCODING 217
SWIDTH 480 0
DWIDTH 8 0
BBX 7 13 0 0
BITMAP
10
28
10
c6
c6
c6
c6
c6
c6
c6
c6
c6
7c
ENDCHAR
STARTCHAR 218
ENCODING 218
SWIDTH 480 0
DWIDTH 8 0
BBX 7 13 0 0
BITMAP
0e
38
00
c6
c6
c6
c6
c6
c6
c6
c6
c6
7c
ENDCHAR
STARTCHAR 219
ENCODING 219
SWIDTH 480 0
DWIDTH 8 0
BBX 7 13 0 0
BITMAP
66
cc
00
c6
c6
c6
c6
c6
c6
c6
c6
c6
7c
ENDCHAR
STARTCHAR 220
ENCODING 220
SWIDTH 480 0
DWIDTH 8 0
BBX 7 13 0 0
BITMAP
c6
c6
00
c6
c6
c6
c6
c6
c6
c6
c6
c6
7c
ENDCHAR
STARTCHAR 221
ENCODING 221
SWIDTH 480 0
DWIDTH 8 0
BBX 6 13 1 0
BITMAP
1c
70
00
cc
cc
cc
cc
78
30
30
30
30
78
ENDCHAR
STARTCHAR 222
ENCODING 222
SWIDTH 480 0
DWIDTH 8 0
BBX 6 13 1 -3
BITMAP
fc
fc
b4
30
30
30
30
30
30
78
18
18
30
ENDCHAR
STARTCHAR 223
ENCODING 223
SWIDTH 480 0
DWIDTH 8 0
BBX 7 10 0 0
BITMAP
78
cc
cc
cc
d8
cc
c6
c6
d6
cc
ENDCHAR
STARTCHAR 224
ENCODING 224
SWIDTH 480 0
DWIDTH 8 0
BBX 7 11 0 0
BITMAP
0c
18
30
00
dc
76
66
60
60
60
f0
ENDCHAR
STARTCHAR 225
ENCODING 225
SWIDTH 480 0
DWIDTH 8 0
BBX 7 11 0 0
BITMAP
0c
18
30
00
78
0c
7c
cc
cc
cc
76
ENDCHAR
STARTCHAR 226
ENCODING 226
SWIDTH 480 0
DWIDTH 8 0
BBX 7 11 0 0
BITMAP
10
38
6c
00
78
0c
7c
cc
cc
cc
76
ENDCHAR
STARTCHAR 227
ENCODING 227
SWIDTH 480 0
DWIDTH 8 0
BBX 7 11 0 0
BITMAP
c6
c6
7c
00
78
0c
7c
cc
cc
cc
76
ENDCHAR
STARTCHAR 228
ENCODING 228
SWIDTH 480 0
DWIDTH 8 0
BBX 7 11 0 0
BITMAP
cc
cc
00
00
78
0c
7c
cc
cc
cc
76
ENDCHAR
STARTCHAR 229
ENCODING 229
SWIDTH 480 0
DWIDTH 8 0
BBX 5 13 2 0
BITMAP
38
e0
00
e0
60
60
60
60
60
60
60
60
f0
ENDCHAR
STARTCHAR 230
ENCODING 230
SWIDTH 480 0
DWIDTH 8 0
BBX 7 11 0 0
BITMAP
06
0c
18
00
7c
c6
c0
c0
c0
c6
7c
ENDCHAR
STARTCHAR 231
ENCODING 231
SWIDTH 480 0
DWIDTH 8 0
BBX 7 10 0 -3
BITMAP
7c
c6
c0
c0
c0
c6
7c
18
0c
78
ENDCHAR
STARTCHAR 232
ENCODING 232
SWIDTH 480 0
DWIDTH 8 0
BBX 7 10 0 0
BITMAP
6c
38
00
7c
c6
c0
c0
c0
c6
7c
ENDCHAR
STARTCHAR 233
ENCODING 233
SWIDTH 480 0
DWIDTH 8 0
BBX 7 11 0 0
BITMAP
06
0c
18
00
7c
c6
fe
c0
c0
c6
7c
ENDCHAR
STARTCHAR 234
ENCODING 234
SWIDTH 480 0
DWIDTH 8 0
BBX 7 10 0 -3
BITMAP
7c
c6
fe
c0
c0
c6
7c
0c
18
0e
ENDCHAR
STARTCHAR 235
ENCODING 235
SWIDTH 480 0
DWIDTH 8 0
BBX 7 10 0 0
BITMAP
6c
6c
00
7c
c6
fe
c0
c0
c6
7c
ENDCHAR
STARTCHAR 236
ENCODING 236
SWIDTH 480 0
DWIDTH 8 0
BBX 7 10 0 0
BITMAP
6c
38
00
7c
c6
fe
c0
c0
c6
7c
ENDCHAR
STARTCHAR 237
ENCODING 237
SWIDTH 480 0
DWIDTH 8 0
BBX 5 11 2 0
BITMAP
18
30
60
00
e0
60
60
60
60
60
f0
ENDCHAR
STARTCHAR 238
ENCODING 238
SWIDTH 480 0
DWIDTH 8 0
BBX 5 11 1 0
BITMAP
20
70
d8
00
70
30
30
30
30
30
78
ENDCHAR
STARTCHAR 239
ENCODING 239
SWIDTH 480 0
DWIDTH 8 0
BBX 8 12 0 0
BITMAP
03
03
1d
0e
0c
3c
6c
cc
cc
cc
cc
76
ENDCHAR
STARTCHAR 240
ENCODING 240
SWIDTH 480 0
DWIDTH 8 0
BBX 7 10 0 0
BITMAP
0c
3e
0c
3c
6c
cc
cc
cc
cc
76
ENDCHAR
STARTCHAR 241
ENCODING 241
SWIDTH 480 0
DWIDTH 8 0
BBX 7 11 0 0
BITMAP
06
0c
18
00
dc
66
66
66
66
66
66
ENDCHAR
STARTCHAR 242
ENCODING 242
SWIDTH 480 0
DWIDTH 8 0
BBX 7 10 0 0
BITMAP
6c
38
00
dc
66
66
66
66
66
66
ENDCHAR
STARTCHAR 243
ENCODING 243
SWIDTH 480 0
DWIDTH 8 0
BBX 7 11 0 0
BITMAP
0c
18
30
00
7c
c6
c6
c6
c6
c6
7c
ENDCHAR
STARTCHAR 244
ENCODING 244
SWIDTH 480 0
DWIDTH 8 0
BBX 7 11 0 0
BITMAP
10
38
6c
00
7c
c6
c6
c6
c6
c6
7c
ENDCHAR
STARTCHAR 245
ENCODING 245
SWIDTH 480 0
DWIDTH 8 0
BBX 8 11 0 0
BITMAP
33
66
cc
00
7c
c6
c6
c6
c6
c6
7c
ENDCHAR
STARTCHAR 246
ENCODING 246
SWIDTH 480 0
DWIDTH 8 0
BBX 7 11 0 0
BITMAP
c6
c6
00
00
7c
c6
c6
c6
c6
c6
7c
ENDCHAR
STARTCHAR 247
ENCODING 247
SWIDTH 480 0
DWIDTH 8 0
BBX 6 7 1 1
BITMAP
30
30
00
fc
00
30
30
ENDCHAR
STARTCHAR 248
ENCODING 248
SWIDTH 480 0
DWIDTH 8 0
BBX 7 10 0 0
BITMAP
6c
38
00
dc
76
66
60
60
60
f0
ENDCHAR
STARTCHAR 249
ENCODING 249
SWIDTH 480 0
DWIDTH 8 0
BBX 7 11 0 0
BITMAP
30
48
30
00
cc
cc
cc
cc
cc
cc
76
ENDCHAR
STARTCHAR 250
ENCODING 250
SWIDTH 480 0
DWIDTH 8 0
BBX 7 11 0 0
BITMAP
0c
18
30
00
cc
cc
cc
cc
cc
cc
76
ENDCHAR
STARTCHAR 251
ENCODING 251
SWIDTH 480 0
DWIDTH 8 0
BBX 8 11 0 0
BITMAP
33
66
cc
00
cc
cc
cc
cc
cc
cc
76
ENDCHAR
STARTCHAR 252
ENCODING 252
SWIDTH 480 0
DWIDTH 8 0
BBX 7 11 0 0
BITMAP
cc
cc
00
00
cc
cc
cc
cc
cc
cc
76
ENDCHAR
STARTCHAR 253
ENCODING 253
SWIDTH 480 0
DWIDTH 8 0
BBX 7 14 0 -3
BITMAP
06
0c
18
00
c6
c6
c6
c6
c6
c6
7e
06
0c
78
ENDCHAR
STARTCHAR 254
ENCODING 254
SWIDTH 480 0
DWIDTH 8 0
BBX 7 13 0 -3
BITMAP
10
30
30
fc
30
30
30
30
36
1c
0c
0c
18
ENDCHAR
STARTCHAR 255
ENCODING 255
SWIDTH 480 0
DWIDTH 8 0
BBX 2 2 3 9
BITMAP
c0
c0
ENDCHAR
ENDFONT
